<mxfile host="app.diagrams.net" agent="Mozilla/5.0 (Windows NT 10.0; Win64; x64) AppleWebKit/537.36 (KHTML, like Gecko) Chrome/136.0.0.0 Safari/537.36 Edg/136.0.0.0" version="27.0.6" pages="2">
  <diagram name="Present" id="X24muQDXPBGgwRox7sY_">
    <mxGraphModel dx="5267" dy="3062" grid="1" gridSize="10" guides="1" tooltips="1" connect="1" arrows="1" fold="1" page="1" pageScale="1" pageWidth="827" pageHeight="1169" math="0" shadow="0">
      <root>
        <mxCell id="0" />
        <mxCell id="1" parent="0" />
        <mxCell id="U34ISL1ub5wM67sV5JN9-1" value="" style="rounded=0;whiteSpace=wrap;html=1;" vertex="1" parent="1">
          <mxGeometry x="-850" y="-60" width="2650" height="1220" as="geometry" />
        </mxCell>
        <mxCell id="FwRfaY4ndfHbOarDGWE8-5" value="" style="rounded=0;whiteSpace=wrap;html=1;fillColor=#dae8fc;strokeColor=#6c8ebf;" vertex="1" parent="1">
          <mxGeometry x="-680" y="70" width="730" height="940" as="geometry" />
        </mxCell>
        <mxCell id="FwRfaY4ndfHbOarDGWE8-2" value="" style="rounded=1;whiteSpace=wrap;html=1;" vertex="1" parent="1">
          <mxGeometry x="-610" y="140" width="630" height="480" as="geometry" />
        </mxCell>
        <mxCell id="QVRAEZY0bx30yB37R2La-6" value="" style="group" vertex="1" connectable="0" parent="1">
          <mxGeometry x="260" y="190" width="630" height="820" as="geometry" />
        </mxCell>
        <mxCell id="FwRfaY4ndfHbOarDGWE8-6" value="" style="rounded=0;whiteSpace=wrap;html=1;fillColor=#f8cecc;strokeColor=#b85450;" vertex="1" parent="QVRAEZY0bx30yB37R2La-6">
          <mxGeometry x="-170" y="-120" width="800" height="940" as="geometry" />
        </mxCell>
        <mxCell id="QVRAEZY0bx30yB37R2La-1" value="" style="rounded=1;whiteSpace=wrap;html=1;" vertex="1" parent="QVRAEZY0bx30yB37R2La-6">
          <mxGeometry width="500" height="400" as="geometry" />
        </mxCell>
        <mxCell id="QVRAEZY0bx30yB37R2La-4" value="Renishaw.Tamhini.Remoting" style="text;html=1;align=center;verticalAlign=middle;whiteSpace=wrap;rounded=0;" vertex="1" parent="QVRAEZY0bx30yB37R2La-6">
          <mxGeometry x="220" y="370" width="60" height="30" as="geometry" />
        </mxCell>
        <mxCell id="QVRAEZY0bx30yB37R2La-5" value="ICartoGenerateService" style="rounded=0;whiteSpace=wrap;html=1;" vertex="1" parent="QVRAEZY0bx30yB37R2La-6">
          <mxGeometry x="40" y="30" width="160" height="60" as="geometry" />
        </mxCell>
        <mxCell id="QVRAEZY0bx30yB37R2La-8" style="edgeStyle=orthogonalEdgeStyle;rounded=0;orthogonalLoop=1;jettySize=auto;html=1;endArrow=block;endFill=0;" edge="1" parent="QVRAEZY0bx30yB37R2La-6" source="QVRAEZY0bx30yB37R2La-7" target="QVRAEZY0bx30yB37R2La-5">
          <mxGeometry relative="1" as="geometry" />
        </mxCell>
        <mxCell id="QVRAEZY0bx30yB37R2La-10" style="edgeStyle=orthogonalEdgeStyle;rounded=0;orthogonalLoop=1;jettySize=auto;html=1;endArrow=diamondThin;endFill=1;" edge="1" parent="QVRAEZY0bx30yB37R2La-6" source="QVRAEZY0bx30yB37R2La-7" target="QVRAEZY0bx30yB37R2La-9">
          <mxGeometry relative="1" as="geometry" />
        </mxCell>
        <mxCell id="QVRAEZY0bx30yB37R2La-7" value="WcfCartoGenerateService" style="rounded=0;whiteSpace=wrap;html=1;" vertex="1" parent="QVRAEZY0bx30yB37R2La-6">
          <mxGeometry x="30" y="140" width="180" height="90" as="geometry" />
        </mxCell>
        <mxCell id="QVRAEZY0bx30yB37R2La-9" value="Mediator" style="rounded=0;whiteSpace=wrap;html=1;" vertex="1" parent="QVRAEZY0bx30yB37R2La-6">
          <mxGeometry x="310" y="155" width="120" height="60" as="geometry" />
        </mxCell>
        <mxCell id="QVRAEZY0bx30yB37R2La-13" value="" style="group;" vertex="1" connectable="0" parent="1">
          <mxGeometry x="960" y="174" width="720" height="836" as="geometry" />
        </mxCell>
        <mxCell id="FwRfaY4ndfHbOarDGWE8-7" value="" style="rounded=0;whiteSpace=wrap;html=1;fillColor=#ffe6cc;strokeColor=#d79b00;" vertex="1" parent="QVRAEZY0bx30yB37R2La-13">
          <mxGeometry x="-50" y="-104" width="680" height="940" as="geometry" />
        </mxCell>
        <mxCell id="QVRAEZY0bx30yB37R2La-11" value="" style="rounded=1;whiteSpace=wrap;html=1;" vertex="1" parent="QVRAEZY0bx30yB37R2La-13">
          <mxGeometry width="480" height="400" as="geometry" />
        </mxCell>
        <mxCell id="QVRAEZY0bx30yB37R2La-12" value="CartoModule" style="text;html=1;align=center;verticalAlign=middle;whiteSpace=wrap;rounded=0;" vertex="1" parent="QVRAEZY0bx30yB37R2La-13">
          <mxGeometry x="210" y="371" width="60" height="30" as="geometry" />
        </mxCell>
        <mxCell id="QVRAEZY0bx30yB37R2La-14" value="CartoPartProgramGenerationService" style="rounded=0;whiteSpace=wrap;html=1;" vertex="1" parent="QVRAEZY0bx30yB37R2La-13">
          <mxGeometry x="50" y="170" width="210" height="60" as="geometry" />
        </mxCell>
        <mxCell id="QVRAEZY0bx30yB37R2La-17" value="" style="group" vertex="1" connectable="0" parent="1">
          <mxGeometry x="950" y="680" width="150" height="91" as="geometry" />
        </mxCell>
        <mxCell id="QVRAEZY0bx30yB37R2La-15" value="" style="rounded=1;whiteSpace=wrap;html=1;" vertex="1" parent="QVRAEZY0bx30yB37R2La-17">
          <mxGeometry width="150" height="90" as="geometry" />
        </mxCell>
        <mxCell id="QVRAEZY0bx30yB37R2La-16" value="Tamhini" style="text;html=1;align=center;verticalAlign=middle;whiteSpace=wrap;rounded=0;" vertex="1" parent="QVRAEZY0bx30yB37R2La-17">
          <mxGeometry x="45" y="61" width="60" height="30" as="geometry" />
        </mxCell>
        <mxCell id="QVRAEZY0bx30yB37R2La-18" value="" style="group" vertex="1" connectable="0" parent="1">
          <mxGeometry x="1290" y="680" width="150" height="91" as="geometry" />
        </mxCell>
        <mxCell id="QVRAEZY0bx30yB37R2La-19" value="" style="rounded=1;whiteSpace=wrap;html=1;" vertex="1" parent="QVRAEZY0bx30yB37R2La-18">
          <mxGeometry width="150" height="90" as="geometry" />
        </mxCell>
        <mxCell id="QVRAEZY0bx30yB37R2La-20" value="Tamhini.Model" style="text;html=1;align=center;verticalAlign=middle;whiteSpace=wrap;rounded=0;" vertex="1" parent="QVRAEZY0bx30yB37R2La-18">
          <mxGeometry x="45" y="61" width="60" height="30" as="geometry" />
        </mxCell>
        <mxCell id="QVRAEZY0bx30yB37R2La-21" style="edgeStyle=orthogonalEdgeStyle;rounded=0;orthogonalLoop=1;jettySize=auto;html=1;" edge="1" parent="1" source="QVRAEZY0bx30yB37R2La-11" target="QVRAEZY0bx30yB37R2La-15">
          <mxGeometry relative="1" as="geometry" />
        </mxCell>
        <mxCell id="QVRAEZY0bx30yB37R2La-22" style="edgeStyle=orthogonalEdgeStyle;rounded=0;orthogonalLoop=1;jettySize=auto;html=1;" edge="1" parent="1" source="QVRAEZY0bx30yB37R2La-11" target="QVRAEZY0bx30yB37R2La-19">
          <mxGeometry relative="1" as="geometry" />
        </mxCell>
        <mxCell id="QVRAEZY0bx30yB37R2La-24" value="" style="group" vertex="1" connectable="0" parent="1">
          <mxGeometry x="490" y="680" width="316" height="91" as="geometry" />
        </mxCell>
        <mxCell id="QVRAEZY0bx30yB37R2La-25" value="" style="rounded=1;whiteSpace=wrap;html=1;" vertex="1" parent="QVRAEZY0bx30yB37R2La-24">
          <mxGeometry width="315.99999999999994" height="90" as="geometry" />
        </mxCell>
        <mxCell id="QVRAEZY0bx30yB37R2La-26" value="Renishaw.Tamhini.WcfHost" style="text;html=1;align=center;verticalAlign=middle;whiteSpace=wrap;rounded=0;" vertex="1" parent="QVRAEZY0bx30yB37R2La-24">
          <mxGeometry x="94.8" y="61" width="126.39999999999999" height="30" as="geometry" />
        </mxCell>
        <mxCell id="QVRAEZY0bx30yB37R2La-30" value="" style="group" vertex="1" connectable="0" parent="1">
          <mxGeometry x="120" y="680" width="316" height="91" as="geometry" />
        </mxCell>
        <mxCell id="QVRAEZY0bx30yB37R2La-31" value="" style="rounded=1;whiteSpace=wrap;html=1;" vertex="1" parent="QVRAEZY0bx30yB37R2La-30">
          <mxGeometry width="315.99999999999994" height="90" as="geometry" />
        </mxCell>
        <mxCell id="QVRAEZY0bx30yB37R2La-32" value="Renishaw.Tamhini.WindowsService" style="text;html=1;align=center;verticalAlign=middle;whiteSpace=wrap;rounded=0;" vertex="1" parent="QVRAEZY0bx30yB37R2La-30">
          <mxGeometry x="94.8" y="61" width="126.39999999999999" height="30" as="geometry" />
        </mxCell>
        <mxCell id="QVRAEZY0bx30yB37R2La-38" style="edgeStyle=orthogonalEdgeStyle;rounded=0;orthogonalLoop=1;jettySize=auto;html=1;" edge="1" parent="1" source="QVRAEZY0bx30yB37R2La-25" target="QVRAEZY0bx30yB37R2La-1">
          <mxGeometry relative="1" as="geometry" />
        </mxCell>
        <mxCell id="QVRAEZY0bx30yB37R2La-39" style="edgeStyle=orthogonalEdgeStyle;rounded=0;orthogonalLoop=1;jettySize=auto;html=1;" edge="1" parent="1" source="QVRAEZY0bx30yB37R2La-31" target="QVRAEZY0bx30yB37R2La-1">
          <mxGeometry relative="1" as="geometry" />
        </mxCell>
        <mxCell id="QVRAEZY0bx30yB37R2La-40" style="edgeStyle=orthogonalEdgeStyle;rounded=0;orthogonalLoop=1;jettySize=auto;html=1;" edge="1" parent="1" source="QVRAEZY0bx30yB37R2La-9" target="QVRAEZY0bx30yB37R2La-14">
          <mxGeometry relative="1" as="geometry" />
        </mxCell>
        <mxCell id="QVRAEZY0bx30yB37R2La-41" value="" style="endArrow=none;dashed=1;html=1;dashPattern=1 3;strokeWidth=2;rounded=0;" edge="1" parent="1">
          <mxGeometry width="50" height="50" relative="1" as="geometry">
            <mxPoint x="830" y="860" as="sourcePoint" />
            <mxPoint x="830" y="70" as="targetPoint" />
          </mxGeometry>
        </mxCell>
        <mxCell id="QVRAEZY0bx30yB37R2La-42" value="WCF Remoting" style="text;html=1;align=center;verticalAlign=middle;whiteSpace=wrap;rounded=0;fontSize=21;fontStyle=1;textShadow=1;" vertex="1" parent="1">
          <mxGeometry x="360" y="870" width="190" height="30" as="geometry" />
        </mxCell>
        <mxCell id="QVRAEZY0bx30yB37R2La-43" value="Tamhini Core" style="text;html=1;align=center;verticalAlign=middle;whiteSpace=wrap;rounded=0;fontSize=21;fontStyle=1;textShadow=1;" vertex="1" parent="1">
          <mxGeometry x="1100" y="870" width="190" height="30" as="geometry" />
        </mxCell>
        <mxCell id="5WSz_EhqKJe0COYXF09Y-3" value="" style="group" vertex="1" connectable="0" parent="1">
          <mxGeometry x="-540" y="190" width="350" height="150" as="geometry" />
        </mxCell>
        <mxCell id="5WSz_EhqKJe0COYXF09Y-1" value="" style="rounded=1;whiteSpace=wrap;html=1;" vertex="1" parent="5WSz_EhqKJe0COYXF09Y-3">
          <mxGeometry width="350" height="128.57142857142856" as="geometry" />
        </mxCell>
        <mxCell id="5WSz_EhqKJe0COYXF09Y-2" value="Renishaw.Tamhini.Client" style="text;html=1;align=center;verticalAlign=middle;whiteSpace=wrap;rounded=0;" vertex="1" parent="5WSz_EhqKJe0COYXF09Y-3">
          <mxGeometry x="116.66666666666666" y="85.71428571428571" width="116.66666666666666" height="64.28571428571428" as="geometry" />
        </mxCell>
        <mxCell id="5WSz_EhqKJe0COYXF09Y-4" value="TamhiniClient" style="rounded=0;whiteSpace=wrap;html=1;" vertex="1" parent="5WSz_EhqKJe0COYXF09Y-3">
          <mxGeometry x="90" y="25.710000000000008" width="120" height="60" as="geometry" />
        </mxCell>
        <mxCell id="5WSz_EhqKJe0COYXF09Y-5" style="edgeStyle=orthogonalEdgeStyle;rounded=0;orthogonalLoop=1;jettySize=auto;html=1;dashed=1;" edge="1" parent="1" source="5WSz_EhqKJe0COYXF09Y-4" target="QVRAEZY0bx30yB37R2La-5">
          <mxGeometry relative="1" as="geometry" />
        </mxCell>
        <mxCell id="5WSz_EhqKJe0COYXF09Y-6" value="name pipe" style="edgeLabel;html=1;align=center;verticalAlign=middle;resizable=0;points=[];" vertex="1" connectable="0" parent="5WSz_EhqKJe0COYXF09Y-5">
          <mxGeometry x="-0.0745" relative="1" as="geometry">
            <mxPoint as="offset" />
          </mxGeometry>
        </mxCell>
        <mxCell id="FwRfaY4ndfHbOarDGWE8-3" value="Capture" style="text;html=1;align=center;verticalAlign=middle;whiteSpace=wrap;rounded=0;" vertex="1" parent="1">
          <mxGeometry x="-325" y="590" width="60" height="30" as="geometry" />
        </mxCell>
        <mxCell id="FwRfaY4ndfHbOarDGWE8-4" value="WCF Client" style="text;html=1;align=center;verticalAlign=middle;whiteSpace=wrap;rounded=0;fontSize=21;fontStyle=1;textShadow=1;" vertex="1" parent="1">
          <mxGeometry x="-370" y="870" width="190" height="30" as="geometry" />
        </mxCell>
      </root>
    </mxGraphModel>
  </diagram>
  <diagram name="Using GRPC" id="Qw1p6Ut7Nb5soDBmm6IM">
    <mxGraphModel dx="4751" dy="2792" grid="1" gridSize="10" guides="1" tooltips="1" connect="1" arrows="1" fold="1" page="1" pageScale="1" pageWidth="827" pageHeight="1169" math="0" shadow="0">
      <root>
        <mxCell id="xQXiiT9wTex-xq3PUTPa-0" />
        <mxCell id="xQXiiT9wTex-xq3PUTPa-1" parent="xQXiiT9wTex-xq3PUTPa-0" />
        <mxCell id="9uA3MjEAmk_QKXru_5vf-0" value="" style="rounded=0;whiteSpace=wrap;html=1;" vertex="1" parent="xQXiiT9wTex-xq3PUTPa-1">
          <mxGeometry x="-870" y="-60" width="2490" height="1150" as="geometry" />
        </mxCell>
        <mxCell id="AT4lGBwyNgy_W59z4-QH-20" value="" style="rounded=0;whiteSpace=wrap;html=1;fillColor=#f5f5f5;fontColor=#333333;strokeColor=#666666;" vertex="1" parent="xQXiiT9wTex-xq3PUTPa-1">
          <mxGeometry x="-220" y="20" width="380" height="900" as="geometry" />
        </mxCell>
        <mxCell id="AT4lGBwyNgy_W59z4-QH-19" value="" style="rounded=0;whiteSpace=wrap;html=1;fillColor=#ffe6cc;strokeColor=#d79b00;" vertex="1" parent="xQXiiT9wTex-xq3PUTPa-1">
          <mxGeometry x="875" y="20" width="665" height="910" as="geometry" />
        </mxCell>
        <mxCell id="AT4lGBwyNgy_W59z4-QH-18" value="" style="rounded=0;whiteSpace=wrap;html=1;fillColor=#fff2cc;strokeColor=#d6b656;" vertex="1" parent="xQXiiT9wTex-xq3PUTPa-1">
          <mxGeometry x="200" y="20" width="600" height="900" as="geometry" />
        </mxCell>
        <mxCell id="AT4lGBwyNgy_W59z4-QH-17" value="" style="rounded=0;whiteSpace=wrap;html=1;fillColor=#dae8fc;strokeColor=#6c8ebf;" vertex="1" parent="xQXiiT9wTex-xq3PUTPa-1">
          <mxGeometry x="-810" y="20" width="550" height="890" as="geometry" />
        </mxCell>
        <mxCell id="xQXiiT9wTex-xq3PUTPa-2" value="" style="group" vertex="1" connectable="0" parent="xQXiiT9wTex-xq3PUTPa-1">
          <mxGeometry x="260" y="190" width="500" height="400" as="geometry" />
        </mxCell>
        <mxCell id="xQXiiT9wTex-xq3PUTPa-3" value="" style="rounded=1;whiteSpace=wrap;html=1;" vertex="1" parent="xQXiiT9wTex-xq3PUTPa-2">
          <mxGeometry width="500" height="400" as="geometry" />
        </mxCell>
        <mxCell id="xQXiiT9wTex-xq3PUTPa-4" value="gRPC Server" style="text;html=1;align=center;verticalAlign=middle;whiteSpace=wrap;rounded=0;" vertex="1" parent="xQXiiT9wTex-xq3PUTPa-2">
          <mxGeometry x="220" y="370" width="90" height="30" as="geometry" />
        </mxCell>
        <mxCell id="xQXiiT9wTex-xq3PUTPa-7" style="edgeStyle=orthogonalEdgeStyle;rounded=0;orthogonalLoop=1;jettySize=auto;html=1;endArrow=diamondThin;endFill=1;" edge="1" parent="xQXiiT9wTex-xq3PUTPa-2" source="xQXiiT9wTex-xq3PUTPa-8" target="xQXiiT9wTex-xq3PUTPa-9">
          <mxGeometry relative="1" as="geometry" />
        </mxCell>
        <mxCell id="xQXiiT9wTex-xq3PUTPa-8" value="ServerCartoGenerateService" style="rounded=0;whiteSpace=wrap;html=1;" vertex="1" parent="xQXiiT9wTex-xq3PUTPa-2">
          <mxGeometry x="30" y="140" width="180" height="90" as="geometry" />
        </mxCell>
        <mxCell id="xQXiiT9wTex-xq3PUTPa-9" value="Mediator" style="rounded=0;whiteSpace=wrap;html=1;" vertex="1" parent="xQXiiT9wTex-xq3PUTPa-2">
          <mxGeometry x="310" y="155" width="120" height="60" as="geometry" />
        </mxCell>
        <mxCell id="xQXiiT9wTex-xq3PUTPa-10" value="" style="group" vertex="1" connectable="0" parent="xQXiiT9wTex-xq3PUTPa-1">
          <mxGeometry x="960" y="174" width="480" height="401" as="geometry" />
        </mxCell>
        <mxCell id="xQXiiT9wTex-xq3PUTPa-11" value="" style="rounded=1;whiteSpace=wrap;html=1;" vertex="1" parent="xQXiiT9wTex-xq3PUTPa-10">
          <mxGeometry width="480" height="400" as="geometry" />
        </mxCell>
        <mxCell id="xQXiiT9wTex-xq3PUTPa-12" value="CartoModule" style="text;html=1;align=center;verticalAlign=middle;whiteSpace=wrap;rounded=0;" vertex="1" parent="xQXiiT9wTex-xq3PUTPa-10">
          <mxGeometry x="210" y="371" width="60" height="30" as="geometry" />
        </mxCell>
        <mxCell id="xQXiiT9wTex-xq3PUTPa-13" value="CartoPartProgramGenerationService" style="rounded=0;whiteSpace=wrap;html=1;" vertex="1" parent="xQXiiT9wTex-xq3PUTPa-10">
          <mxGeometry x="50" y="170" width="210" height="60" as="geometry" />
        </mxCell>
        <mxCell id="xQXiiT9wTex-xq3PUTPa-14" value="" style="group" vertex="1" connectable="0" parent="xQXiiT9wTex-xq3PUTPa-1">
          <mxGeometry x="950" y="680" width="150" height="91" as="geometry" />
        </mxCell>
        <mxCell id="xQXiiT9wTex-xq3PUTPa-15" value="" style="rounded=1;whiteSpace=wrap;html=1;" vertex="1" parent="xQXiiT9wTex-xq3PUTPa-14">
          <mxGeometry width="150" height="90" as="geometry" />
        </mxCell>
        <mxCell id="xQXiiT9wTex-xq3PUTPa-16" value="Tamhini" style="text;html=1;align=center;verticalAlign=middle;whiteSpace=wrap;rounded=0;" vertex="1" parent="xQXiiT9wTex-xq3PUTPa-14">
          <mxGeometry x="45" y="61" width="60" height="30" as="geometry" />
        </mxCell>
        <mxCell id="xQXiiT9wTex-xq3PUTPa-17" value="" style="group" vertex="1" connectable="0" parent="xQXiiT9wTex-xq3PUTPa-1">
          <mxGeometry x="1290" y="680" width="150" height="91" as="geometry" />
        </mxCell>
        <mxCell id="xQXiiT9wTex-xq3PUTPa-18" value="" style="rounded=1;whiteSpace=wrap;html=1;" vertex="1" parent="xQXiiT9wTex-xq3PUTPa-17">
          <mxGeometry width="150" height="90" as="geometry" />
        </mxCell>
        <mxCell id="xQXiiT9wTex-xq3PUTPa-19" value="Tamhini.Model" style="text;html=1;align=center;verticalAlign=middle;whiteSpace=wrap;rounded=0;" vertex="1" parent="xQXiiT9wTex-xq3PUTPa-17">
          <mxGeometry x="45" y="61" width="60" height="30" as="geometry" />
        </mxCell>
        <mxCell id="xQXiiT9wTex-xq3PUTPa-20" style="edgeStyle=orthogonalEdgeStyle;rounded=0;orthogonalLoop=1;jettySize=auto;html=1;" edge="1" parent="xQXiiT9wTex-xq3PUTPa-1" source="xQXiiT9wTex-xq3PUTPa-11" target="xQXiiT9wTex-xq3PUTPa-15">
          <mxGeometry relative="1" as="geometry" />
        </mxCell>
        <mxCell id="xQXiiT9wTex-xq3PUTPa-21" style="edgeStyle=orthogonalEdgeStyle;rounded=0;orthogonalLoop=1;jettySize=auto;html=1;" edge="1" parent="xQXiiT9wTex-xq3PUTPa-1" source="xQXiiT9wTex-xq3PUTPa-11" target="xQXiiT9wTex-xq3PUTPa-18">
          <mxGeometry relative="1" as="geometry" />
        </mxCell>
        <mxCell id="xQXiiT9wTex-xq3PUTPa-30" style="edgeStyle=orthogonalEdgeStyle;rounded=0;orthogonalLoop=1;jettySize=auto;html=1;" edge="1" parent="xQXiiT9wTex-xq3PUTPa-1" source="xQXiiT9wTex-xq3PUTPa-9" target="xQXiiT9wTex-xq3PUTPa-13">
          <mxGeometry relative="1" as="geometry" />
        </mxCell>
        <mxCell id="xQXiiT9wTex-xq3PUTPa-31" value="" style="endArrow=none;dashed=1;html=1;dashPattern=1 3;strokeWidth=2;rounded=0;" edge="1" parent="xQXiiT9wTex-xq3PUTPa-1">
          <mxGeometry width="50" height="50" relative="1" as="geometry">
            <mxPoint x="830" y="860" as="sourcePoint" />
            <mxPoint x="830" y="70" as="targetPoint" />
          </mxGeometry>
        </mxCell>
        <mxCell id="xQXiiT9wTex-xq3PUTPa-32" value="GRPC Server" style="text;html=1;align=center;verticalAlign=middle;whiteSpace=wrap;rounded=0;fontSize=21;fontStyle=1;textShadow=1;" vertex="1" parent="xQXiiT9wTex-xq3PUTPa-1">
          <mxGeometry x="405" y="820" width="190" height="30" as="geometry" />
        </mxCell>
        <mxCell id="xQXiiT9wTex-xq3PUTPa-33" value="Tamhini Core" style="text;html=1;align=center;verticalAlign=middle;whiteSpace=wrap;rounded=0;fontSize=21;fontStyle=1;textShadow=1;" vertex="1" parent="xQXiiT9wTex-xq3PUTPa-1">
          <mxGeometry x="1090" y="840" width="190" height="30" as="geometry" />
        </mxCell>
        <mxCell id="AT4lGBwyNgy_W59z4-QH-2" value="" style="group" vertex="1" connectable="0" parent="xQXiiT9wTex-xq3PUTPa-1">
          <mxGeometry x="-170" y="80" width="290" height="160" as="geometry" />
        </mxCell>
        <mxCell id="AT4lGBwyNgy_W59z4-QH-0" value="" style="rounded=1;whiteSpace=wrap;html=1;" vertex="1" parent="AT4lGBwyNgy_W59z4-QH-2">
          <mxGeometry width="290" height="160" as="geometry" />
        </mxCell>
        <mxCell id="AT4lGBwyNgy_W59z4-QH-1" value="Tamhini Contracts" style="text;html=1;align=center;verticalAlign=middle;whiteSpace=wrap;rounded=0;" vertex="1" parent="AT4lGBwyNgy_W59z4-QH-2">
          <mxGeometry x="87.5" y="130" width="115" height="30" as="geometry" />
        </mxCell>
        <mxCell id="AT4lGBwyNgy_W59z4-QH-3" value="CartoGenerateService.proto" style="rounded=0;whiteSpace=wrap;html=1;" vertex="1" parent="xQXiiT9wTex-xq3PUTPa-1">
          <mxGeometry x="-120" y="130" width="160" height="60" as="geometry" />
        </mxCell>
        <mxCell id="AT4lGBwyNgy_W59z4-QH-4" style="edgeStyle=orthogonalEdgeStyle;rounded=0;orthogonalLoop=1;jettySize=auto;html=1;endArrow=block;endFill=0;" edge="1" parent="xQXiiT9wTex-xq3PUTPa-1" source="xQXiiT9wTex-xq3PUTPa-8" target="AT4lGBwyNgy_W59z4-QH-3">
          <mxGeometry relative="1" as="geometry" />
        </mxCell>
        <mxCell id="AT4lGBwyNgy_W59z4-QH-5" value="server only implementation" style="edgeLabel;html=1;align=center;verticalAlign=middle;resizable=0;points=[];" vertex="1" connectable="0" parent="AT4lGBwyNgy_W59z4-QH-4">
          <mxGeometry x="-0.3223" y="5" relative="1" as="geometry">
            <mxPoint x="54" y="-5" as="offset" />
          </mxGeometry>
        </mxCell>
        <mxCell id="AT4lGBwyNgy_W59z4-QH-8" value="" style="group" vertex="1" connectable="0" parent="xQXiiT9wTex-xq3PUTPa-1">
          <mxGeometry x="-780" y="275" width="410" height="251" as="geometry" />
        </mxCell>
        <mxCell id="AT4lGBwyNgy_W59z4-QH-6" value="" style="rounded=1;whiteSpace=wrap;html=1;" vertex="1" parent="AT4lGBwyNgy_W59z4-QH-8">
          <mxGeometry x="15" y="-30" width="410" height="250" as="geometry" />
        </mxCell>
        <mxCell id="AT4lGBwyNgy_W59z4-QH-7" value="Capture" style="text;html=1;align=center;verticalAlign=middle;whiteSpace=wrap;rounded=0;" vertex="1" parent="AT4lGBwyNgy_W59z4-QH-8">
          <mxGeometry x="190" y="190" width="60" height="30" as="geometry" />
        </mxCell>
        <mxCell id="AT4lGBwyNgy_W59z4-QH-9" value="ClientCartoGenerateService" style="rounded=0;whiteSpace=wrap;html=1;" vertex="1" parent="AT4lGBwyNgy_W59z4-QH-8">
          <mxGeometry x="130" y="70" width="180" height="60" as="geometry" />
        </mxCell>
        <mxCell id="AT4lGBwyNgy_W59z4-QH-10" style="edgeStyle=orthogonalEdgeStyle;rounded=0;orthogonalLoop=1;jettySize=auto;html=1;endArrow=block;endFill=0;" edge="1" parent="xQXiiT9wTex-xq3PUTPa-1" source="AT4lGBwyNgy_W59z4-QH-9" target="AT4lGBwyNgy_W59z4-QH-3">
          <mxGeometry relative="1" as="geometry" />
        </mxCell>
        <mxCell id="AT4lGBwyNgy_W59z4-QH-11" value="client only implementation" style="edgeLabel;html=1;align=center;verticalAlign=middle;resizable=0;points=[];" vertex="1" connectable="0" parent="AT4lGBwyNgy_W59z4-QH-10">
          <mxGeometry x="-0.3225" relative="1" as="geometry">
            <mxPoint as="offset" />
          </mxGeometry>
        </mxCell>
        <mxCell id="AT4lGBwyNgy_W59z4-QH-15" value="GRPC Client" style="text;html=1;align=center;verticalAlign=middle;whiteSpace=wrap;rounded=0;fontSize=21;fontStyle=1;textShadow=1;" vertex="1" parent="xQXiiT9wTex-xq3PUTPa-1">
          <mxGeometry x="-620" y="840" width="190" height="30" as="geometry" />
        </mxCell>
        <mxCell id="AT4lGBwyNgy_W59z4-QH-21" value="GRPC Contract" style="text;html=1;align=center;verticalAlign=middle;whiteSpace=wrap;rounded=0;fontSize=21;fontStyle=1;textShadow=1;" vertex="1" parent="xQXiiT9wTex-xq3PUTPa-1">
          <mxGeometry x="-125" y="840" width="190" height="30" as="geometry" />
        </mxCell>
      </root>
    </mxGraphModel>
  </diagram>
</mxfile>
